<svg width="108" height="98" viewBox="0 0 108 98" fill="none" xmlns="http://www.w3.org/2000/svg">
<path d="M105.375 20.45C103.699 16.5705 101.284 13.0549 98.2625 10.1C95.2391 7.13635 91.6745 4.78116 87.7625 3.16253C83.706 1.47744 79.3551 0.614917 74.9625 0.625027C68.8 0.625027 62.7875 2.31253 57.5625 5.50003C56.3125 6.26253 55.125 7.10003 54 8.01253C52.875 7.10003 51.6875 6.26253 50.4375 5.50003C45.2125 2.31253 39.2 0.625027 33.0375 0.625027C28.6 0.625027 24.3 1.47503 20.2375 3.16253C16.3125 4.78753 12.775 7.12503 9.7375 10.1C6.71246 13.0516 4.29597 16.568 2.625 20.45C0.8875 24.4875 0 28.775 0 33.1875C0 37.35 0.85 41.6875 2.5375 46.1C3.95 49.7875 5.975 53.6125 8.5625 57.475C12.6625 63.5875 18.3 69.9625 25.3 76.425C36.9 87.1375 48.3875 94.5375 48.875 94.8375L51.8375 96.7375C53.15 97.575 54.8375 97.575 56.15 96.7375L59.1125 94.8375C59.6 94.525 71.075 87.1375 82.6875 76.425C89.6875 69.9625 95.325 63.5875 99.425 57.475C102.013 53.6125 104.05 49.7875 105.45 46.1C107.137 41.6875 107.988 37.35 107.988 33.1875C108 28.775 107.112 24.4875 105.375 20.45V20.45Z" fill="#9747FF"/>
</svg>
